<?xml version="1.0" encoding="UTF-8"?>
<svg xmlns="http://www.w3.org/2000/svg" width="1536" height="1024" viewBox="0 0 1536 1024" role="img" aria-labelledby="title desc">
  <title id="title">Logo La Proveedora</title>
  <desc id="desc">Logo vectorizado en rojo sobre fondo transparente.</desc>
  <g fill="#ff1515" fill-rule="evenodd" stroke="none">
    <path d="M 883.0 557.0 L 883.0 561.0 L 884.0 562.0 L 886.0 561.0 L 888.0 561.0 L 889.0 562.0 L 899.0 561.0 L 899.0 558.0 L 898.0 557.0 Z M 669.0 558.0 L 669.0 561.0 L 672.0 561.0 L 673.0 562.0 L 684.0 561.0 L 684.0 558.0 L 683.0 557.0 L 670.0 557.0 Z M 417.0 557.0 L 417.0 561.0 L 433.0 561.0 L 433.0 558.0 L 432.0 557.0 Z M 1122.0 547.0 L 1122.0 571.0 L 1124.0 572.0 L 1126.0 572.0 L 1126.0 563.0 L 1127.0 562.0 L 1129.0 562.0 L 1130.0 563.0 L 1130.0 565.0 L 1132.0 569.0 L 1135.0 569.0 L 1136.0 568.0 L 1137.0 563.0 L 1138.0 562.0 L 1140.0 562.0 L 1141.0 563.0 L 1141.0 572.0 L 1145.0 572.0 L 1146.0 571.0 L 1151.0 571.0 L 1153.0 572.0 L 1156.0 565.0 L 1161.0 565.0 L 1163.0 567.0 L 1165.0 572.0 L 1169.0 572.0 L 1170.0 570.0 L 1172.0 570.0 L 1176.0 572.0 L 1181.0 572.0 L 1182.0 571.0 L 1184.0 571.0 L 1187.0 567.0 L 1187.0 561.0 L 1184.0 558.0 L 1178.0 555.0 L 1178.0 553.0 L 1179.0 552.0 L 1182.0 552.0 L 1183.0 553.0 L 1185.0 553.0 L 1186.0 552.0 L 1186.0 548.0 L 1184.0 547.0 L 1176.0 547.0 L 1172.0 550.0 L 1172.0 552.0 L 1171.0 553.0 L 1172.0 558.0 L 1174.0 560.0 L 1178.0 562.0 L 1180.0 562.0 L 1181.0 563.0 L 1181.0 566.0 L 1180.0 567.0 L 1176.0 567.0 L 1172.0 565.0 L 1172.0 568.0 L 1171.0 569.0 L 1169.0 569.0 L 1168.0 568.0 L 1168.0 564.0 L 1166.0 561.0 L 1162.0 547.0 L 1157.0 547.0 L 1156.0 548.0 L 1151.0 564.0 L 1150.0 565.0 L 1150.0 567.0 L 1149.0 568.0 L 1147.0 568.0 L 1146.0 567.0 L 1146.0 547.0 L 1139.0 547.0 L 1137.0 552.0 L 1137.0 555.0 L 1135.0 558.0 L 1133.0 558.0 L 1132.0 557.0 L 1128.0 547.0 Z M 1071.0 547.0 L 1071.0 572.0 L 1076.0 572.0 L 1076.0 564.0 L 1077.0 563.0 L 1082.0 563.0 L 1084.0 562.0 L 1087.0 559.0 L 1087.0 557.0 L 1088.0 556.0 L 1090.0 556.0 L 1091.0 557.0 L 1091.0 571.0 L 1092.0 572.0 L 1096.0 572.0 L 1096.0 565.0 L 1097.0 564.0 L 1099.0 564.0 L 1103.0 571.0 L 1105.0 572.0 L 1109.0 572.0 L 1110.0 571.0 L 1117.0 572.0 L 1117.0 547.0 L 1112.0 547.0 L 1112.0 569.0 L 1111.0 570.0 L 1109.0 570.0 L 1105.0 564.0 L 1105.0 561.0 L 1108.0 557.0 L 1108.0 552.0 L 1104.0 547.0 L 1091.0 547.0 L 1091.0 552.0 L 1090.0 553.0 L 1088.0 553.0 L 1087.0 552.0 L 1087.0 550.0 L 1082.0 547.0 Z M 1096.0 553.0 L 1097.0 552.0 L 1101.0 552.0 L 1102.0 553.0 L 1102.0 556.0 L 1100.0 558.0 L 1097.0 558.0 L 1096.0 557.0 Z M 1076.0 553.0 L 1077.0 552.0 L 1081.0 552.0 L 1082.0 553.0 L 1082.0 557.0 L 1079.0 559.0 L 1077.0 559.0 L 1076.0 558.0 Z M 953.0 550.0 L 954.0 552.0 L 959.0 552.0 L 960.0 553.0 L 960.0 572.0 L 965.0 571.0 L 965.0 553.0 L 971.0 551.0 L 974.0 552.0 L 974.0 572.0 L 987.0 572.0 L 989.0 568.0 L 992.0 569.0 L 992.0 572.0 L 996.0 572.0 L 996.0 564.0 L 997.0 563.0 L 1000.0 564.0 L 1003.0 571.0 L 1005.0 572.0 L 1017.0 572.0 L 1018.0 571.0 L 1025.0 572.0 L 1028.0 565.0 L 1033.0 565.0 L 1035.0 567.0 L 1035.0 569.0 L 1037.0 572.0 L 1041.0 572.0 L 1042.0 570.0 L 1044.0 570.0 L 1047.0 572.0 L 1053.0 572.0 L 1058.0 568.0 L 1058.0 561.0 L 1055.0 558.0 L 1049.0 555.0 L 1050.0 552.0 L 1057.0 553.0 L 1057.0 548.0 L 1055.0 547.0 L 1048.0 547.0 L 1043.0 551.0 L 1043.0 557.0 L 1047.0 561.0 L 1049.0 561.0 L 1053.0 564.0 L 1052.0 567.0 L 1048.0 567.0 L 1045.0 565.0 L 1043.0 567.0 L 1040.0 566.0 L 1034.0 547.0 L 1028.0 547.0 L 1022.0 566.0 L 1019.0 567.0 L 1018.0 566.0 L 1018.0 548.0 L 1017.0 547.0 L 1012.0 547.0 L 1012.0 569.0 L 1011.0 570.0 L 1009.0 570.0 L 1005.0 564.0 L 1005.0 560.0 L 1008.0 557.0 L 1008.0 551.0 L 1006.0 548.0 L 1003.0 547.0 L 992.0 547.0 L 991.0 548.0 L 988.0 547.0 L 954.0 547.0 Z M 997.0 553.0 L 998.0 552.0 L 1001.0 552.0 L 1002.0 553.0 L 1002.0 556.0 L 1001.0 557.0 L 998.0 557.0 L 997.0 556.0 Z M 980.0 552.0 L 990.0 552.0 L 991.0 553.0 L 991.0 566.0 L 990.0 567.0 L 980.0 566.0 L 979.0 565.0 L 979.0 562.0 L 980.0 561.0 L 986.0 561.0 L 986.0 557.0 L 980.0 557.0 L 979.0 556.0 L 979.0 553.0 Z M 908.0 547.0 L 908.0 572.0 L 912.0 572.0 L 913.0 571.0 L 913.0 566.0 L 914.0 565.0 L 916.0 565.0 L 918.0 568.0 L 922.0 568.0 L 922.0 566.0 L 924.0 562.0 L 926.0 562.0 L 927.0 563.0 L 927.0 572.0 L 931.0 572.0 L 932.0 571.0 L 940.0 571.0 L 940.0 569.0 L 942.0 565.0 L 947.0 565.0 L 949.0 567.0 L 950.0 571.0 L 955.0 571.0 L 955.0 568.0 L 954.0 567.0 L 948.0 547.0 L 942.0 547.0 L 938.0 558.0 L 938.0 561.0 L 936.0 564.0 L 936.0 566.0 L 934.0 570.0 L 932.0 570.0 L 931.0 569.0 L 931.0 547.0 L 925.0 547.0 L 925.0 549.0 L 923.0 552.0 L 923.0 554.0 L 921.0 558.0 L 919.0 558.0 L 918.0 557.0 L 918.0 555.0 L 914.0 547.0 Z M 692.0 572.0 L 697.0 572.0 L 700.0 565.0 L 705.0 565.0 L 709.0 572.0 L 726.0 572.0 L 732.0 569.0 L 737.0 572.0 L 741.0 570.0 L 743.0 565.0 L 748.0 565.0 L 753.0 572.0 L 764.0 572.0 L 765.0 563.0 L 768.0 564.0 L 773.0 572.0 L 785.0 572.0 L 786.0 564.0 L 788.0 564.0 L 795.0 572.0 L 798.0 571.0 L 794.0 564.0 L 794.0 560.0 L 797.0 555.0 L 800.0 556.0 L 801.0 567.0 L 805.0 571.0 L 813.0 572.0 L 820.0 567.0 L 822.0 552.0 L 829.0 553.0 L 829.0 572.0 L 834.0 571.0 L 835.0 552.0 L 842.0 553.0 L 843.0 572.0 L 856.0 572.0 L 858.0 570.0 L 869.0 572.0 L 874.0 569.0 L 875.0 561.0 L 867.0 556.0 L 866.0 553.0 L 873.0 553.0 L 874.0 549.0 L 872.0 547.0 L 864.0 547.0 L 860.0 550.0 L 860.0 558.0 L 868.0 562.0 L 869.0 566.0 L 864.0 567.0 L 860.0 565.0 L 857.0 567.0 L 847.0 565.0 L 849.0 561.0 L 855.0 561.0 L 855.0 557.0 L 849.0 557.0 L 848.0 553.0 L 856.0 552.0 L 856.0 547.0 L 822.0 547.0 L 821.0 550.0 L 815.0 547.0 L 807.0 547.0 L 800.0 553.0 L 797.0 553.0 L 792.0 547.0 L 780.0 547.0 L 780.0 568.0 L 777.0 569.0 L 773.0 563.0 L 776.0 557.0 L 775.0 550.0 L 771.0 547.0 L 759.0 547.0 L 759.0 568.0 L 756.0 569.0 L 748.0 547.0 L 743.0 547.0 L 736.0 567.0 L 733.0 566.0 L 733.0 561.0 L 731.0 560.0 L 733.0 554.0 L 732.0 550.0 L 728.0 547.0 L 716.0 547.0 L 715.0 568.0 L 712.0 567.0 L 706.0 548.0 L 700.0 547.0 Z M 721.0 562.0 L 722.0 561.0 L 726.0 561.0 L 728.0 563.0 L 728.0 565.0 L 726.0 567.0 L 722.0 567.0 L 721.0 566.0 Z M 785.0 553.0 L 786.0 552.0 L 790.0 552.0 L 791.0 553.0 L 791.0 556.0 L 789.0 558.0 L 786.0 558.0 L 785.0 557.0 Z M 764.0 553.0 L 765.0 552.0 L 769.0 552.0 L 770.0 553.0 L 770.0 556.0 L 768.0 558.0 L 765.0 558.0 L 764.0 557.0 Z M 722.0 553.0 L 723.0 552.0 L 726.0 552.0 L 727.0 553.0 L 727.0 555.0 L 725.0 557.0 L 723.0 557.0 L 722.0 556.0 Z M 810.0 551.0 L 812.0 551.0 L 815.0 554.0 L 815.0 556.0 L 816.0 557.0 L 816.0 562.0 L 812.0 567.0 L 807.0 566.0 L 805.0 563.0 L 805.0 555.0 Z M 609.0 547.0 L 609.0 572.0 L 623.0 572.0 L 624.0 571.0 L 627.0 571.0 L 628.0 572.0 L 632.0 572.0 L 633.0 571.0 L 641.0 572.0 L 642.0 570.0 L 645.0 570.0 L 648.0 572.0 L 654.0 572.0 L 659.0 568.0 L 659.0 561.0 L 656.0 558.0 L 650.0 555.0 L 650.0 553.0 L 651.0 552.0 L 658.0 553.0 L 659.0 549.0 L 656.0 547.0 L 648.0 547.0 L 645.0 549.0 L 644.0 551.0 L 642.0 551.0 L 641.0 550.0 L 641.0 547.0 L 627.0 547.0 L 627.0 549.0 L 626.0 550.0 L 626.0 566.0 L 625.0 567.0 L 623.0 567.0 L 622.0 566.0 L 615.0 567.0 L 614.0 566.0 L 614.0 547.0 Z M 632.0 553.0 L 633.0 552.0 L 640.0 552.0 L 641.0 551.0 L 643.0 551.0 L 644.0 552.0 L 644.0 557.0 L 645.0 559.0 L 648.0 561.0 L 652.0 562.0 L 653.0 563.0 L 653.0 566.0 L 652.0 567.0 L 649.0 567.0 L 646.0 565.0 L 644.0 565.0 L 643.0 567.0 L 641.0 567.0 L 640.0 566.0 L 633.0 566.0 L 632.0 565.0 L 632.0 562.0 L 633.0 561.0 L 640.0 561.0 L 640.0 557.0 L 633.0 557.0 L 632.0 556.0 Z M 504.0 547.0 L 504.0 572.0 L 517.0 572.0 L 518.0 571.0 L 518.0 567.0 L 509.0 565.0 L 510.0 561.0 L 519.0 561.0 L 521.0 563.0 L 522.0 567.0 L 526.0 571.0 L 529.0 572.0 L 537.0 571.0 L 538.0 570.0 L 538.0 566.0 L 531.0 567.0 L 526.0 563.0 L 526.0 556.0 L 530.0 552.0 L 538.0 553.0 L 539.0 550.0 L 542.0 551.0 L 542.0 571.0 L 544.0 572.0 L 547.0 571.0 L 547.0 562.0 L 548.0 561.0 L 554.0 561.0 L 556.0 563.0 L 556.0 572.0 L 560.0 572.0 L 561.0 571.0 L 568.0 572.0 L 572.0 565.0 L 577.0 565.0 L 581.0 572.0 L 585.0 572.0 L 586.0 571.0 L 598.0 572.0 L 604.0 569.0 L 605.0 567.0 L 605.0 562.0 L 603.0 560.0 L 604.0 550.0 L 600.0 547.0 L 588.0 547.0 L 588.0 568.0 L 587.0 569.0 L 584.0 568.0 L 579.0 553.0 L 579.0 550.0 L 577.0 547.0 L 572.0 547.0 L 564.0 569.0 L 561.0 568.0 L 561.0 547.0 L 556.0 547.0 L 556.0 556.0 L 555.0 557.0 L 548.0 557.0 L 547.0 556.0 L 547.0 547.0 L 542.0 547.0 L 541.0 549.0 L 536.0 547.0 L 528.0 547.0 L 522.0 552.0 L 520.0 558.0 L 510.0 557.0 L 509.0 556.0 L 510.0 552.0 L 518.0 552.0 L 518.0 547.0 Z M 593.0 562.0 L 594.0 561.0 L 598.0 561.0 L 600.0 563.0 L 600.0 565.0 L 597.0 567.0 L 594.0 567.0 L 593.0 566.0 Z M 593.0 552.0 L 594.0 551.0 L 596.0 551.0 L 599.0 553.0 L 599.0 555.0 L 597.0 557.0 L 594.0 557.0 L 593.0 556.0 Z M 467.0 547.0 L 467.0 571.0 L 468.0 572.0 L 481.0 572.0 L 483.0 570.0 L 485.0 570.0 L 488.0 572.0 L 494.0 572.0 L 495.0 571.0 L 497.0 571.0 L 500.0 567.0 L 500.0 561.0 L 497.0 558.0 L 493.0 557.0 L 491.0 555.0 L 491.0 553.0 L 492.0 552.0 L 498.0 553.0 L 499.0 552.0 L 499.0 548.0 L 497.0 547.0 L 489.0 547.0 L 486.0 549.0 L 485.0 551.0 L 485.0 558.0 L 487.0 560.0 L 491.0 562.0 L 493.0 562.0 L 494.0 563.0 L 494.0 566.0 L 493.0 567.0 L 489.0 567.0 L 485.0 565.0 L 485.0 567.0 L 484.0 568.0 L 482.0 568.0 L 481.0 566.0 L 473.0 566.0 L 472.0 565.0 L 472.0 562.0 L 473.0 561.0 L 480.0 561.0 L 480.0 557.0 L 473.0 557.0 L 472.0 556.0 L 472.0 553.0 L 473.0 552.0 L 481.0 552.0 L 481.0 547.0 Z M 443.0 547.0 L 443.0 571.0 L 444.0 572.0 L 452.0 572.0 L 453.0 571.0 L 458.0 570.0 L 461.0 567.0 L 463.0 562.0 L 463.0 555.0 L 462.0 554.0 L 462.0 552.0 L 459.0 549.0 L 455.0 547.0 Z M 449.0 552.0 L 454.0 552.0 L 458.0 557.0 L 458.0 561.0 L 457.0 563.0 L 452.0 567.0 L 449.0 567.0 L 448.0 566.0 L 448.0 553.0 Z M 337.0 547.0 L 337.0 572.0 L 351.0 572.0 L 351.0 568.0 L 352.0 567.0 L 354.0 567.0 L 358.0 571.0 L 360.0 571.0 L 361.0 572.0 L 366.0 572.0 L 367.0 571.0 L 369.0 571.0 L 370.0 570.0 L 370.0 566.0 L 362.0 567.0 L 360.0 566.0 L 358.0 563.0 L 358.0 556.0 L 359.0 554.0 L 362.0 552.0 L 367.0 552.0 L 368.0 553.0 L 372.0 553.0 L 373.0 554.0 L 374.0 571.0 L 376.0 572.0 L 387.0 572.0 L 389.0 570.0 L 391.0 570.0 L 395.0 572.0 L 401.0 572.0 L 406.0 568.0 L 406.0 566.0 L 407.0 565.0 L 407.0 563.0 L 405.0 559.0 L 397.0 555.0 L 397.0 553.0 L 398.0 552.0 L 405.0 553.0 L 405.0 548.0 L 403.0 547.0 L 396.0 547.0 L 394.0 548.0 L 391.0 552.0 L 391.0 556.0 L 393.0 560.0 L 395.0 560.0 L 399.0 562.0 L 401.0 564.0 L 401.0 566.0 L 400.0 567.0 L 395.0 567.0 L 394.0 566.0 L 385.0 567.0 L 384.0 566.0 L 380.0 566.0 L 379.0 565.0 L 379.0 562.0 L 380.0 561.0 L 386.0 561.0 L 386.0 557.0 L 380.0 557.0 L 379.0 556.0 L 379.0 553.0 L 380.0 552.0 L 387.0 552.0 L 388.0 551.0 L 388.0 547.0 L 374.0 547.0 L 374.0 552.0 L 373.0 553.0 L 371.0 553.0 L 370.0 552.0 L 370.0 549.0 L 368.0 547.0 L 360.0 547.0 L 356.0 549.0 L 353.0 554.0 L 353.0 556.0 L 352.0 557.0 L 353.0 566.0 L 352.0 567.0 L 343.0 567.0 L 342.0 566.0 L 342.0 547.0 Z M 291.0 547.0 L 291.0 572.0 L 304.0 571.0 L 309.0 567.0 L 311.0 562.0 L 313.0 562.0 L 315.0 564.0 L 315.0 567.0 L 318.0 571.0 L 320.0 571.0 L 321.0 572.0 L 327.0 572.0 L 331.0 569.0 L 332.0 564.0 L 333.0 563.0 L 333.0 552.0 L 332.0 551.0 L 332.0 547.0 L 328.0 547.0 L 327.0 548.0 L 327.0 560.0 L 328.0 561.0 L 328.0 563.0 L 325.0 567.0 L 322.0 567.0 L 320.0 565.0 L 320.0 547.0 L 314.0 547.0 L 314.0 554.0 L 313.0 555.0 L 311.0 555.0 L 309.0 551.0 L 303.0 547.0 Z M 297.0 552.0 L 302.0 552.0 L 305.0 555.0 L 305.0 557.0 L 306.0 558.0 L 305.0 563.0 L 300.0 567.0 L 297.0 567.0 L 296.0 566.0 L 296.0 553.0 Z M 369.0 459.0 L 367.0 459.0 L 364.0 465.0 L 364.0 467.0 L 359.0 476.0 L 356.0 479.0 L 354.0 479.0 L 353.0 478.0 L 353.0 469.0 L 358.0 460.0 L 358.0 456.0 L 359.0 455.0 L 358.0 453.0 L 358.0 448.0 L 353.0 444.0 L 344.0 444.0 L 343.0 445.0 L 341.0 445.0 L 334.0 449.0 L 327.0 457.0 L 322.0 469.0 L 322.0 479.0 L 325.0 484.0 L 327.0 485.0 L 334.0 485.0 L 341.0 480.0 L 342.0 478.0 L 344.0 478.0 L 345.0 479.0 L 345.0 482.0 L 348.0 485.0 L 354.0 485.0 L 362.0 478.0 L 368.0 466.0 Z M 351.0 448.0 L 353.0 450.0 L 353.0 453.0 L 350.0 455.0 L 349.0 461.0 L 347.0 463.0 L 345.0 468.0 L 341.0 474.0 L 335.0 480.0 L 330.0 481.0 L 328.0 479.0 L 328.0 473.0 L 329.0 472.0 L 330.0 467.0 L 333.0 463.0 L 334.0 460.0 L 342.0 451.0 L 345.0 449.0 Z M 1041.0 419.0 L 1041.0 426.0 L 1049.0 429.0 L 1049.0 515.0 L 1041.0 519.0 L 1041.0 526.0 L 1080.0 525.0 L 1080.0 519.0 L 1072.0 515.0 L 1073.0 480.0 L 1076.0 481.0 L 1101.0 526.0 L 1155.0 526.0 L 1155.0 519.0 L 1149.0 516.0 L 1149.0 508.0 L 1155.0 493.0 L 1182.0 494.0 L 1188.0 512.0 L 1188.0 516.0 L 1181.0 519.0 L 1181.0 525.0 L 1222.0 526.0 L 1222.0 520.0 L 1215.0 517.0 L 1210.0 509.0 L 1180.0 419.0 L 1165.0 420.0 L 1136.0 511.0 L 1130.0 518.0 L 1124.0 518.0 L 1120.0 515.0 L 1097.0 477.0 L 1098.0 474.0 L 1105.0 471.0 L 1110.0 466.0 L 1114.0 456.0 L 1114.0 442.0 L 1109.0 431.0 L 1103.0 425.0 L 1091.0 420.0 Z M 1166.0 455.0 L 1169.0 455.0 L 1170.0 456.0 L 1170.0 458.0 L 1173.0 465.0 L 1173.0 468.0 L 1177.0 478.0 L 1177.0 482.0 L 1176.0 483.0 L 1159.0 483.0 L 1158.0 482.0 L 1159.0 476.0 L 1161.0 472.0 L 1161.0 469.0 L 1162.0 468.0 L 1162.0 466.0 L 1165.0 459.0 L 1165.0 456.0 Z M 1079.0 429.0 L 1084.0 431.0 L 1090.0 438.0 L 1091.0 444.0 L 1092.0 445.0 L 1092.0 454.0 L 1091.0 455.0 L 1090.0 461.0 L 1084.0 468.0 L 1080.0 470.0 L 1073.0 471.0 L 1072.0 470.0 L 1072.0 430.0 L 1073.0 429.0 Z M 859.0 419.0 L 859.0 426.0 L 865.0 427.0 L 867.0 430.0 L 867.0 515.0 L 865.0 517.0 L 859.0 519.0 L 859.0 525.0 L 860.0 526.0 L 899.0 526.0 L 900.0 525.0 L 912.0 524.0 L 922.0 520.0 L 929.0 515.0 L 936.0 507.0 L 941.0 498.0 L 941.0 496.0 L 943.0 492.0 L 943.0 489.0 L 944.0 488.0 L 944.0 483.0 L 945.0 482.0 L 945.0 463.0 L 944.0 462.0 L 943.0 453.0 L 939.0 443.0 L 933.0 434.0 L 924.0 426.0 L 913.0 421.0 L 903.0 420.0 L 902.0 419.0 Z M 891.0 429.0 L 898.0 429.0 L 899.0 430.0 L 901.0 430.0 L 907.0 433.0 L 915.0 442.0 L 916.0 446.0 L 918.0 449.0 L 918.0 452.0 L 920.0 457.0 L 920.0 462.0 L 921.0 463.0 L 921.0 484.0 L 920.0 485.0 L 920.0 490.0 L 919.0 491.0 L 918.0 498.0 L 914.0 505.0 L 907.0 512.0 L 897.0 516.0 L 891.0 516.0 L 890.0 515.0 L 890.0 430.0 Z M 784.0 419.0 L 784.0 426.0 L 789.0 427.0 L 792.0 432.0 L 791.0 435.0 L 792.0 439.0 L 792.0 511.0 L 791.0 515.0 L 788.0 518.0 L 785.0 518.0 L 783.0 520.0 L 783.0 526.0 L 853.0 526.0 L 857.0 502.0 L 856.0 497.0 L 849.0 497.0 L 844.0 508.0 L 836.0 514.0 L 832.0 515.0 L 815.0 515.0 L 814.0 514.0 L 814.0 476.0 L 815.0 475.0 L 831.0 476.0 L 834.0 478.0 L 837.0 486.0 L 845.0 485.0 L 845.0 457.0 L 842.0 455.0 L 837.0 456.0 L 835.0 461.0 L 830.0 465.0 L 815.0 465.0 L 814.0 464.0 L 814.0 431.0 L 816.0 429.0 L 834.0 430.0 L 840.0 435.0 L 843.0 444.0 L 852.0 444.0 L 851.0 419.0 Z M 617.0 419.0 L 617.0 425.0 L 622.0 427.0 L 627.0 435.0 L 655.0 526.0 L 669.0 526.0 L 698.0 432.0 L 706.0 425.0 L 713.0 427.0 L 716.0 431.0 L 716.0 513.0 L 713.0 517.0 L 706.0 519.0 L 706.0 526.0 L 777.0 525.0 L 780.0 497.0 L 773.0 497.0 L 766.0 510.0 L 760.0 514.0 L 739.0 514.0 L 740.0 476.0 L 755.0 476.0 L 760.0 480.0 L 761.0 486.0 L 769.0 486.0 L 769.0 455.0 L 761.0 455.0 L 759.0 461.0 L 754.0 465.0 L 739.0 464.0 L 739.0 430.0 L 759.0 430.0 L 764.0 434.0 L 768.0 444.0 L 776.0 444.0 L 775.0 419.0 L 679.0 419.0 L 679.0 426.0 L 683.0 427.0 L 686.0 433.0 L 669.0 485.0 L 665.0 482.0 L 650.0 432.0 L 653.0 427.0 L 658.0 426.0 L 658.0 419.0 Z M 457.0 419.0 L 457.0 426.0 L 462.0 427.0 L 464.0 429.0 L 464.0 515.0 L 461.0 518.0 L 457.0 518.0 L 455.0 520.0 L 455.0 525.0 L 456.0 526.0 L 495.0 526.0 L 495.0 519.0 L 490.0 518.0 L 487.0 515.0 L 486.0 511.0 L 486.0 481.0 L 489.0 480.0 L 492.0 483.0 L 502.0 503.0 L 516.0 526.0 L 545.0 526.0 L 545.0 520.0 L 536.0 516.0 L 513.0 478.0 L 513.0 474.0 L 523.0 468.0 L 526.0 464.0 L 529.0 456.0 L 529.0 442.0 L 525.0 432.0 L 518.0 425.0 L 507.0 420.0 L 502.0 420.0 L 501.0 419.0 Z M 487.0 429.0 L 494.0 429.0 L 498.0 431.0 L 503.0 436.0 L 506.0 444.0 L 506.0 455.0 L 503.0 463.0 L 498.0 468.0 L 491.0 471.0 L 488.0 471.0 L 486.0 469.0 L 486.0 430.0 Z M 381.0 419.0 L 381.0 426.0 L 388.0 428.0 L 390.0 431.0 L 390.0 514.0 L 388.0 517.0 L 381.0 519.0 L 381.0 525.0 L 382.0 526.0 L 424.0 526.0 L 424.0 519.0 L 418.0 518.0 L 414.0 515.0 L 414.0 512.0 L 413.0 511.0 L 413.0 483.0 L 414.0 482.0 L 426.0 482.0 L 427.0 481.0 L 430.0 481.0 L 431.0 480.0 L 436.0 479.0 L 440.0 477.0 L 447.0 471.0 L 452.0 462.0 L 453.0 455.0 L 454.0 454.0 L 454.0 446.0 L 453.0 445.0 L 452.0 438.0 L 449.0 432.0 L 445.0 427.0 L 441.0 424.0 L 434.0 421.0 L 426.0 420.0 L 425.0 419.0 Z M 414.0 429.0 L 418.0 429.0 L 425.0 432.0 L 427.0 434.0 L 431.0 444.0 L 431.0 459.0 L 430.0 460.0 L 429.0 465.0 L 424.0 471.0 L 420.0 473.0 L 414.0 473.0 L 413.0 472.0 L 413.0 430.0 Z M 987.0 417.0 L 986.0 418.0 L 983.0 418.0 L 982.0 419.0 L 977.0 420.0 L 971.0 423.0 L 963.0 430.0 L 958.0 437.0 L 955.0 443.0 L 955.0 445.0 L 952.0 452.0 L 952.0 455.0 L 951.0 456.0 L 951.0 463.0 L 950.0 464.0 L 950.0 480.0 L 951.0 481.0 L 951.0 488.0 L 952.0 489.0 L 952.0 492.0 L 953.0 493.0 L 953.0 496.0 L 954.0 497.0 L 955.0 502.0 L 958.0 508.0 L 964.0 516.0 L 971.0 522.0 L 977.0 525.0 L 983.0 526.0 L 984.0 527.0 L 989.0 527.0 L 990.0 528.0 L 996.0 528.0 L 997.0 527.0 L 1007.0 526.0 L 1016.0 522.0 L 1019.0 520.0 L 1028.0 510.0 L 1033.0 500.0 L 1033.0 498.0 L 1035.0 494.0 L 1035.0 491.0 L 1036.0 490.0 L 1036.0 486.0 L 1037.0 485.0 L 1037.0 460.0 L 1036.0 459.0 L 1036.0 454.0 L 1035.0 453.0 L 1033.0 445.0 L 1028.0 435.0 L 1020.0 426.0 L 1014.0 422.0 L 1004.0 418.0 L 999.0 418.0 L 998.0 417.0 Z M 990.0 427.0 L 995.0 427.0 L 996.0 428.0 L 998.0 428.0 L 1004.0 432.0 L 1009.0 441.0 L 1010.0 447.0 L 1011.0 448.0 L 1011.0 452.0 L 1012.0 453.0 L 1012.0 462.0 L 1013.0 463.0 L 1013.0 485.0 L 1012.0 486.0 L 1012.0 496.0 L 1011.0 497.0 L 1010.0 504.0 L 1006.0 512.0 L 1000.0 517.0 L 989.0 517.0 L 981.0 510.0 L 977.0 500.0 L 976.0 491.0 L 975.0 490.0 L 975.0 480.0 L 974.0 479.0 L 974.0 460.0 L 975.0 459.0 L 976.0 445.0 L 977.0 444.0 L 979.0 436.0 L 981.0 433.0 L 985.0 429.0 Z M 574.0 417.0 L 573.0 418.0 L 569.0 418.0 L 568.0 419.0 L 563.0 420.0 L 556.0 424.0 L 547.0 433.0 L 546.0 436.0 L 544.0 438.0 L 544.0 440.0 L 542.0 442.0 L 542.0 444.0 L 540.0 448.0 L 539.0 457.0 L 538.0 458.0 L 538.0 485.0 L 539.0 486.0 L 540.0 495.0 L 543.0 501.0 L 543.0 503.0 L 549.0 513.0 L 555.0 519.0 L 563.0 524.0 L 565.0 524.0 L 568.0 526.0 L 571.0 526.0 L 572.0 527.0 L 589.0 527.0 L 590.0 526.0 L 593.0 526.0 L 596.0 524.0 L 598.0 524.0 L 603.0 521.0 L 611.0 514.0 L 617.0 505.0 L 621.0 495.0 L 622.0 487.0 L 623.0 486.0 L 623.0 477.0 L 624.0 476.0 L 623.0 460.0 L 622.0 459.0 L 622.0 455.0 L 621.0 454.0 L 621.0 451.0 L 620.0 450.0 L 619.0 445.0 L 615.0 437.0 L 609.0 429.0 L 608.0 429.0 L 603.0 424.0 L 593.0 419.0 L 585.0 418.0 L 584.0 417.0 Z M 577.0 427.0 L 581.0 427.0 L 586.0 429.0 L 592.0 435.0 L 596.0 444.0 L 597.0 452.0 L 598.0 453.0 L 598.0 460.0 L 599.0 461.0 L 599.0 486.0 L 598.0 487.0 L 598.0 496.0 L 597.0 497.0 L 597.0 501.0 L 593.0 510.0 L 585.0 517.0 L 576.0 517.0 L 569.0 512.0 L 566.0 507.0 L 566.0 505.0 L 564.0 501.0 L 563.0 491.0 L 562.0 490.0 L 562.0 452.0 L 563.0 451.0 L 563.0 446.0 L 564.0 445.0 L 565.0 439.0 L 568.0 433.0 L 572.0 429.0 Z M 336.0 389.0 L 326.0 388.0 L 314.0 398.0 L 303.0 418.0 L 294.0 447.0 L 291.0 450.0 L 282.0 451.0 L 273.0 448.0 L 269.0 444.0 L 266.0 434.0 L 268.0 423.0 L 274.0 415.0 L 283.0 411.0 L 292.0 414.0 L 291.0 410.0 L 284.0 407.0 L 276.0 408.0 L 264.0 416.0 L 259.0 426.0 L 259.0 440.0 L 262.0 446.0 L 270.0 452.0 L 281.0 455.0 L 288.0 455.0 L 289.0 459.0 L 282.0 475.0 L 279.0 478.0 L 255.0 479.0 L 240.0 486.0 L 235.0 493.0 L 235.0 500.0 L 237.0 504.0 L 247.0 508.0 L 260.0 506.0 L 269.0 501.0 L 277.0 493.0 L 283.0 484.0 L 288.0 484.0 L 311.0 489.0 L 328.0 497.0 L 335.0 504.0 L 338.0 511.0 L 336.0 523.0 L 341.0 520.0 L 343.0 515.0 L 342.0 505.0 L 334.0 494.0 L 322.0 487.0 L 287.0 478.0 L 296.0 455.0 L 299.0 452.0 L 315.0 444.0 L 322.0 438.0 L 332.0 425.0 L 337.0 415.0 L 340.0 404.0 L 339.0 392.0 Z M 276.0 483.0 L 276.0 485.0 L 274.0 488.0 L 266.0 496.0 L 259.0 501.0 L 256.0 501.0 L 251.0 503.0 L 246.0 503.0 L 245.0 502.0 L 243.0 502.0 L 240.0 499.0 L 240.0 494.0 L 241.0 492.0 L 250.0 486.0 L 252.0 486.0 L 256.0 484.0 L 261.0 484.0 L 262.0 483.0 L 270.0 483.0 L 271.0 482.0 L 275.0 482.0 Z M 332.0 393.0 L 335.0 397.0 L 335.0 401.0 L 334.0 402.0 L 333.0 411.0 L 327.0 424.0 L 321.0 432.0 L 314.0 439.0 L 307.0 444.0 L 303.0 445.0 L 302.0 444.0 L 302.0 442.0 L 304.0 439.0 L 305.0 434.0 L 307.0 431.0 L 309.0 424.0 L 312.0 419.0 L 312.0 417.0 L 316.0 409.0 L 325.0 396.0 L 329.0 393.0 Z M 194.0 396.0 L 197.0 575.0 L 228.0 591.0 L 301.0 605.0 L 551.0 628.0 L 864.0 631.0 L 1188.0 606.0 L 1281.0 589.0 L 1304.0 579.0 L 1312.0 567.0 L 1309.0 391.0 L 1281.0 375.0 L 1195.0 358.0 L 1051.0 342.0 L 883.0 333.0 L 590.0 334.0 L 405.0 346.0 L 296.0 360.0 L 220.0 376.0 Z M 212.0 403.0 L 218.0 395.0 L 248.0 386.0 L 354.0 369.0 L 490.0 356.0 L 672.0 348.0 L 946.0 352.0 L 1188.0 374.0 L 1272.0 390.0 L 1293.0 401.0 L 1294.0 555.0 L 1288.0 565.0 L 1181.0 588.0 L 893.0 612.0 L 617.0 613.0 L 345.0 593.0 L 252.0 577.0 L 213.0 561.0 Z"/>
  </g>
</svg>
